<?xml version="1.0" standalone="no"?>
<!DOCTYPE svg PUBLIC "-//W3C//DTD SVG 20010904//EN"
 "http://www.w3.org/TR/2001/REC-SVG-20010904/DTD/svg10.dtd">
<svg version="1.0" xmlns="http://www.w3.org/2000/svg"
 width="1001.000000pt" height="1001.000000pt" viewBox="0 0 1001.000000 1001.000000"
 preserveAspectRatio="xMidYMid meet">
<metadata>
Created by potrace 1.14, written by Peter Selinger 2001-2017
</metadata>
<g transform="translate(0.000000,1001.000000) scale(0.100000,-0.100000)"
fill="#000000" stroke="none">
<path d="M6770 8899 c-175 -10 -351 -43 -447 -82 -32 -13 -80 -30 -108 -37
-27 -8 -61 -20 -75 -27 -14 -7 -30 -13 -36 -13 -7 0 -15 -7 -18 -16 -4 -10
-12 -14 -22 -10 -9 4 -22 3 -28 -2 -6 -5 -27 -15 -46 -22 -59 -22 -220 -120
-315 -191 -115 -85 -255 -216 -255 -237 -1 -10 -18 -29 -39 -43 -47 -33 -222
-260 -278 -361 -41 -76 -120 -188 -131 -188 -21 0 -72 -33 -71 -45 3 -25 -2
-36 -13 -32 -7 2 -13 8 -13 13 0 5 -9 23 -21 39 -25 37 -41 70 -93 203 -116
291 -293 506 -558 676 -39 25 -74 46 -77 46 -4 0 -23 10 -44 23 -82 51 -271
118 -428 151 -38 8 -126 29 -196 45 -244 59 -485 62 -779 11 -360 -62 -740
-209 -1060 -411 -70 -44 -132 -86 -139 -94 -7 -8 -17 -15 -22 -15 -5 0 -23
-13 -41 -30 -18 -16 -35 -30 -40 -30 -7 0 -87 -70 -192 -169 -65 -61 -193
-202 -240 -266 -17 -22 -36 -47 -44 -55 -42 -43 -162 -244 -231 -385 -128
-263 -205 -524 -242 -830 -17 -139 -16 -562 1 -710 43 -374 114 -656 257
-1018 198 -501 488 -983 855 -1421 158 -189 391 -427 559 -571 125 -107 169
-143 200 -167 19 -14 44 -35 56 -46 23 -22 193 -168 209 -180 6 -4 42 -32 80
-63 105 -84 316 -237 435 -313 58 -38 121 -78 140 -91 57 -37 176 -105 183
-105 4 0 37 -19 74 -42 109 -67 233 -138 308 -178 39 -20 102 -54 140 -75 39
-21 93 -50 120 -64 28 -14 52 -28 55 -31 3 -3 25 -16 50 -29 25 -14 48 -29 51
-34 3 -5 9 -8 13 -7 4 1 30 -14 59 -32 29 -18 57 -33 63 -33 6 0 22 -8 37 -18
15 -10 27 -14 27 -10 0 3 11 -4 24 -16 14 -13 30 -20 36 -16 7 4 14 -2 17 -15
4 -17 11 -20 29 -16 15 4 27 0 36 -11 12 -17 29 -25 55 -26 7 0 10 -4 7 -9 -3
-4 8 -13 23 -20 15 -7 31 -17 35 -23 4 -5 8 -6 8 -2 0 4 21 -4 46 -18 25 -14
49 -23 53 -20 5 2 17 -7 27 -20 10 -14 23 -25 29 -25 11 0 136 -61 145 -70 3
-3 16 -7 30 -8 14 0 26 -6 28 -12 2 -5 11 -10 21 -10 19 0 170 -57 186 -70 5
-4 42 -16 80 -26 39 -9 87 -23 107 -30 28 -10 38 -11 42 -1 3 9 6 9 13 0 13
-19 60 -33 93 -28 16 3 44 7 60 10 21 3 30 0 30 -9 0 -11 13 -13 58 -9 31 3
59 8 62 12 3 3 14 8 25 9 11 2 26 9 34 15 11 9 13 9 8 0 -9 -14 50 -13 73 2
22 14 40 15 40 3 0 -7 4 -7 13 0 7 6 25 15 39 21 24 9 26 8 21 -7 -4 -10 4 -5
19 11 14 15 30 27 37 27 6 0 11 5 11 12 0 6 3 8 6 5 4 -4 1 -13 -6 -22 -16
-20 -6 -19 14 1 15 14 17 14 32 0 17 -17 25 -20 23 -9 -3 20 2 30 16 30 8 0
15 -4 15 -9 0 -4 5 -8 11 -8 15 0 39 26 32 34 -12 12 13 6 26 -6 11 -10 14
-10 18 0 3 6 11 12 19 12 8 0 14 7 14 17 0 15 1 15 18 0 23 -21 33 -22 26 -3
-3 8 0 17 7 22 8 4 10 3 5 -4 -5 -8 2 -12 18 -12 14 0 26 4 26 8 0 4 12 8 27
7 21 0 28 5 28 19 0 11 6 21 13 23 8 3 10 -1 6 -12 -9 -23 41 -15 60 10 15 20
15 20 30 0 9 -12 15 -15 16 -7 0 9 7 11 21 7 16 -5 20 -3 17 12 -2 10 2 17 10
15 6 -1 12 2 12 7 0 5 9 7 20 4 11 -3 27 0 35 7 11 9 15 9 15 1 0 -8 6 -9 18
-2 19 10 23 11 53 11 11 0 17 5 14 10 -3 6 1 10 9 10 9 0 16 -3 16 -7 0 -5 15
-8 34 -9 27 0 35 4 43 27 8 22 15 26 36 22 19 -4 27 0 32 16 6 21 25 28 38 14
4 -3 17 -7 30 -8 12 -1 31 -5 42 -9 11 -5 16 -4 10 1 -19 16 -16 42 5 42 11 1
29 1 40 2 11 0 20 3 20 7 0 4 9 13 21 20 16 10 24 10 34 2 11 -9 20 -6 40 16
14 15 23 20 19 11 -4 -13 -1 -17 15 -17 15 0 19 5 14 18 -5 14 -3 13 10 -3 8
-11 27 -20 41 -20 21 -1 26 4 26 25 1 22 2 23 11 7 6 -9 15 -15 20 -12 5 4 6
11 3 17 -5 7 -1 9 9 5 12 -4 21 2 31 21 9 15 15 22 16 16 0 -14 60 -16 60 -2
0 5 -6 8 -13 5 -6 -2 -18 2 -26 10 -11 12 -11 14 0 13 21 -3 59 11 59 21 0 5
5 9 11 9 6 0 8 -9 4 -20 -4 -11 -2 -20 4 -20 6 0 11 3 11 8 0 4 14 13 31 21
19 8 28 18 25 27 -6 17 -1 17 26 3 18 -10 20 -9 15 5 -5 11 -1 16 13 16 11 0
20 -4 20 -10 0 -5 -4 -10 -10 -10 -5 0 -10 -5 -10 -11 0 -6 6 -9 14 -6 8 3 17
3 19 -1 2 -4 3 -2 1 4 -1 6 2 17 7 25 8 12 10 12 19 -1 8 -12 10 -11 10 8 0
13 7 31 16 40 15 15 16 14 9 -8 -4 -14 -10 -31 -12 -37 -3 -7 0 -13 6 -13 6 0
11 6 11 13 1 39 71 81 91 54 3 -5 9 1 12 12 4 16 0 21 -16 22 -12 0 -16 3 -9
6 6 2 10 8 8 12 -3 4 4 8 15 8 10 1 19 -4 19 -12 0 -8 4 -16 8 -19 11 -6 9 25
-3 43 -6 11 -2 13 22 8 22 -4 33 -1 43 14 8 10 20 19 27 19 7 0 10 7 7 15 -4
9 0 15 9 15 8 0 17 7 21 15 3 9 18 15 36 15 23 0 30 4 30 19 0 14 6 19 20 18
21 -1 26 -12 10 -22 -16 -10 -11 -33 7 -31 9 0 25 9 36 19 10 10 25 16 33 13
9 -3 14 1 14 11 0 13 3 14 12 5 9 -9 15 -5 24 18 13 29 54 44 54 19 0 -6 -7
-9 -15 -5 -17 6 -19 -2 -5 -24 7 -12 12 -12 21 -3 16 16 21 43 8 43 -18 0 -8
23 21 52 25 23 32 26 36 13 4 -10 19 -15 43 -14 29 0 32 2 16 9 -11 5 -15 9
-10 9 6 1 3 6 -5 12 -15 11 0 9 56 -7 14 -4 23 0 27 10 4 9 2 16 -3 16 -5 0
-7 8 -4 18 2 9 -1 7 -7 -6 -7 -12 -18 -22 -26 -22 -18 0 -16 15 4 35 14 14 14
18 2 26 -12 7 -12 9 0 9 8 0 22 -7 31 -15 25 -23 52 -9 46 24 -6 36 -18 65
-30 73 -8 5 -7 8 1 8 7 0 17 -8 22 -17 10 -16 11 -16 17 5 l6 22 19 -21 c18
-21 39 -18 39 6 0 8 -7 11 -20 8 -11 -3 -20 -1 -20 5 0 5 9 12 21 15 17 5 19
9 10 26 -6 11 -17 18 -25 15 -10 -4 -12 2 -9 20 4 20 1 26 -12 26 -9 0 -15 6
-12 13 2 6 10 11 16 9 9 -2 9 3 2 17 -6 10 -7 21 -4 25 3 3 1 6 -5 6 -7 0 -13
-12 -14 -27 -2 -47 -3 -51 -11 -59 -4 -4 -7 0 -7 9 0 8 -6 22 -13 29 -8 8 -10
22 -6 38 4 14 7 19 8 12 1 -9 5 -10 20 -1 17 11 17 13 2 29 -11 11 -19 13 -24
6 -5 -7 -7 -5 -4 4 2 8 12 14 22 13 12 -1 14 2 6 10 -18 18 -13 27 19 38 17 6
30 16 30 21 0 7 -4 7 -12 1 -18 -14 -91 -16 -83 -3 3 6 11 8 16 5 5 -4 17 -1
26 4 10 6 14 11 9 11 -6 0 -1 6 9 14 17 12 19 28 13 95 -1 11 -8 17 -15 14
-14 -6 -18 -23 -5 -23 4 0 9 -12 10 -26 2 -22 0 -24 -12 -14 -8 6 -12 19 -9
27 5 13 2 15 -17 10 -15 -4 -33 1 -51 14 -29 20 -43 13 -33 -18 5 -17 5 -17
-9 0 -12 14 -16 15 -25 4 -13 -15 -72 -11 -72 5 0 13 -35 -31 -42 -51 -3 -12
-6 -12 -11 2 -3 9 -2 17 3 17 6 0 10 5 10 11 0 6 -7 9 -15 5 -8 -3 -15 -1 -15
5 0 7 10 9 23 5 18 -4 23 -1 24 16 2 16 -1 18 -10 9 -6 -6 -22 -11 -35 -11
-21 0 -22 1 -8 16 21 21 20 27 -3 15 -29 -16 -44 -68 -17 -58 9 4 16 -4 19
-21 3 -15 3 -29 1 -32 -7 -6 -24 22 -18 31 2 4 -3 10 -12 13 -23 9 -24 8 -17
-12 4 -12 3 -14 -5 -7 -12 11 -4 65 9 65 5 0 9 5 9 10 0 6 -9 10 -20 10 -11 0
-20 -5 -20 -11 0 -6 -8 -8 -19 -4 -13 4 -23 0 -30 -12 -6 -10 -11 -13 -11 -8
0 6 -4 5 -8 -2 -9 -15 -40 -21 -41 -8 -1 6 3 10 8 10 6 0 16 6 22 12 15 15 0
18 -58 14 -18 -2 -33 2 -33 8 0 6 -8 11 -17 10 -11 0 -13 -3 -5 -6 17 -7 15
-20 -3 -20 -8 0 -15 6 -15 14 0 7 -7 13 -16 13 -8 0 -12 5 -9 11 4 6 20 8 38
4 l32 -6 -29 19 c-27 19 -62 20 -51 2 3 -4 -8 -10 -25 -12 -19 -3 -31 0 -35 9
-2 8 0 11 5 8 6 -3 10 -1 10 4 0 6 5 11 11 11 5 0 7 -4 4 -10 -12 -20 12 -9
35 15 18 19 20 25 8 25 -9 0 -18 -7 -22 -15 -4 -11 -11 -12 -28 -6 -22 8 -25
23 -12 61 8 23 25 -10 17 -35 -5 -18 -4 -18 11 -6 10 8 14 21 11 32 -4 12 -1
19 7 19 8 0 9 3 3 8 -18 13 -16 52 3 52 14 0 15 2 2 10 -22 14 -40 12 -34 -5
5 -11 -2 -13 -32 -9 -44 5 -40 2 -48 34 -6 19 -5 21 3 10 7 -10 11 -11 11 -2
0 6 7 12 15 12 8 0 15 -4 15 -10 0 -5 5 -10 11 -10 5 0 7 5 4 10 -3 6 -3 10 2
10 4 0 16 11 26 25 17 23 16 25 -8 61 -35 52 -33 60 18 54 15 -1 17 3 12 19
-5 15 -2 21 9 21 10 0 16 9 16 23 0 18 2 19 10 7 8 -13 10 -12 10 3 0 9 6 17
14 17 8 0 14 11 14 26 0 30 18 46 45 40 11 -3 17 2 17 14 0 10 7 25 15 33 8 8
11 18 7 22 -4 4 0 5 8 3 8 -2 19 7 25 20 5 12 16 22 23 22 8 0 12 5 10 12 -5
13 26 48 42 48 6 0 10 5 10 10 0 6 8 18 18 28 44 47 89 99 98 113 5 9 40 51
79 93 38 42 74 84 80 94 12 22 61 87 93 123 73 83 305 448 420 659 19 36 43
76 52 90 9 14 28 50 42 80 15 30 45 96 68 145 161 341 253 610 328 955 70 322
98 744 68 1044 -9 87 -21 164 -27 172 -6 7 -8 18 -5 23 4 5 2 12 -3 15 -5 3
-12 23 -16 43 -10 46 -9 43 -36 123 -57 167 -78 232 -103 315 -150 493 -484
911 -942 1181 -253 148 -511 277 -674 337 -365 134 -677 186 -1000 166z m1685
-856 c-4 -10 -10 -28 -12 -40 -3 -13 -10 -20 -19 -16 -17 6 -18 27 -2 53 16
25 43 27 33 3z m-75 -12 c0 -6 -4 -13 -10 -16 -5 -3 -10 1 -10 9 0 9 5 16 10
16 6 0 10 -4 10 -9z m-2473 -56 c-7 -13 -14 -20 -15 -15 -2 6 -8 7 -14 4 -5
-4 -2 5 7 20 21 32 37 25 22 -9z m-3770 -71 c11 -3 24 -15 27 -27 3 -12 8 -18
12 -14 10 9 35 -13 28 -24 -3 -5 1 -9 9 -9 8 0 18 -9 23 -19 5 -11 32 -46 61
-78 28 -32 73 -83 99 -113 68 -80 93 -109 149 -171 49 -54 102 -115 184 -212
23 -27 41 -57 41 -68 0 -17 -55 -147 -80 -189 -27 -46 -154 -311 -195 -405
-26 -60 -50 -114 -54 -120 -5 -5 -23 -46 -40 -90 -60 -147 -71 -165 -103 -165
-15 0 -56 13 -90 29 -35 16 -85 37 -113 46 -58 20 -128 50 -167 71 -14 8 -33
14 -42 14 -9 0 -16 5 -16 10 0 6 -7 10 -15 10 -8 0 -23 4 -33 10 -29 16 -229
100 -239 100 -18 0 -129 62 -145 80 -10 12 -14 29 -10 42 5 23 106 221 214
423 33 61 115 221 183 356 120 239 250 494 261 511 6 9 20 10 51 2z m6328
-126 c-5 -25 -22 -44 -31 -35 -6 6 21 57 31 57 2 0 2 -10 0 -22z m-55 -22 c0
-2 -13 -20 -30 -41 -29 -36 -50 -93 -48 -125 4 -51 -12 -66 -29 -28 -14 31 39
158 75 181 29 18 32 19 32 13z m33 -43 c-8 -24 -73 -87 -73 -72 0 13 61 87 72
88 4 1 5 -7 1 -16z m43 -60 c-11 -21 -15 -23 -16 -10 0 24 22 65 27 50 2 -6
-3 -24 -11 -40z m-16 -67 c0 -8 -4 -18 -10 -21 -5 -3 -10 3 -10 14 0 12 5 21
10 21 6 0 10 -6 10 -14z m-13 -78 c-3 -7 -5 -2 -5 12 0 14 2 19 5 13 2 -7 2
-19 0 -25z m-224 -148 c-7 -28 -16 -25 -32 13 -18 40 -30 48 -52 36 -18 -9
-49 -3 -49 11 0 5 12 17 27 28 l27 20 42 -44 c31 -31 41 -49 37 -64z m-136
-32 c13 -12 23 -27 23 -34 0 -7 16 -23 37 -35 32 -20 34 -23 17 -30 -21 -7
-54 6 -54 23 0 6 -9 8 -22 5 -11 -3 -34 1 -51 9 -25 13 -31 14 -38 2 -5 -7 -9
-16 -9 -20 0 -15 -20 -8 -20 7 0 16 69 93 84 94 6 1 20 -9 33 -21z m143 -47
c0 -16 -27 -31 -45 -25 -15 6 -15 9 6 20 28 16 39 17 39 5z m-6570 -86 c6 -17
5 -32 -4 -50 -18 -35 -30 -16 -21 35 8 46 12 49 25 15z m5135 -102 c15 -32 86
-175 157 -317 146 -291 212 -436 203 -445 -4 -3 -11 2 -16 11 -5 9 -16 24 -24
32 -8 8 -15 21 -15 28 0 7 -14 30 -30 52 -16 21 -34 54 -40 72 -7 19 -16 34
-21 34 -6 0 -8 4 -4 9 7 12 -41 121 -53 121 -10 0 -47 82 -57 128 -3 18 -31
66 -61 108 -30 41 -54 79 -54 83 0 5 -7 22 -15 37 -16 31 -21 104 -7 104 5 0
21 -26 37 -57z m-2708 -89 c-3 -3 -12 -4 -19 -1 -8 3 -5 6 6 6 11 1 17 -2 13
-5z m230 -145 c62 -35 94 -60 90 -72 -4 -12 -37 -19 -37 -8 0 4 -22 23 -50 42
-76 52 -78 80 -3 38z m138 -95 c9 -9 14 -18 11 -21 -6 -6 -46 20 -46 29 0 13
18 9 35 -8z m-3215 -544 c0 -5 -4 -10 -10 -10 -5 0 -10 5 -10 10 0 6 5 10 10
10 6 0 10 -4 10 -10z m8210 -38 c0 -16 -25 -42 -71 -74 -26 -18 -77 -59 -115
-90 -38 -33 -78 -58 -90 -58 -13 0 -32 -12 -43 -26 -11 -14 -40 -33 -63 -41
-24 -8 -59 -26 -78 -41 -54 -42 -90 -63 -90 -53 0 14 100 91 127 97 12 4 23 9
23 13 0 11 108 91 122 91 8 0 27 14 43 30 16 17 48 42 71 55 23 13 44 31 48
40 3 8 11 15 18 15 7 1 27 12 43 25 30 25 55 32 55 17z m-8220 -113 c16 -18
30 -36 30 -42 0 -6 11 -25 25 -43 14 -18 30 -45 35 -60 9 -24 4 -21 -41 22
-28 27 -62 59 -75 71 -15 14 -24 33 -24 53 0 38 12 38 50 -1z m7870 -83 c0
-16 -51 -29 -64 -16 -14 14 4 30 35 30 18 0 29 -5 29 -14z m-7060 -76 c0 -5
-2 -10 -4 -10 -3 0 -8 5 -11 10 -3 6 -1 10 4 10 6 0 11 -4 11 -10z m126 -74
c10 -3 46 -31 79 -61 63 -58 70 -62 78 -42 3 6 6 -2 6 -20 1 -27 -2 -31 -16
-26 -29 11 -92 60 -114 87 -16 21 -29 26 -62 26 -38 0 -44 4 -64 40 -38 66
-30 77 25 37 27 -19 57 -37 68 -41z m6744 23 c0 -11 -23 -39 -67 -84 -24 -23
-31 -41 -12 -29 8 4 8 1 1 -12 -6 -11 -43 -44 -82 -74 -39 -30 -88 -69 -108
-87 l-37 -32 -3 26 c-4 32 15 55 28 33 8 -13 12 -12 28 6 11 11 24 29 30 40 6
12 27 32 46 45 20 13 36 32 36 43 0 24 56 94 94 117 36 22 46 23 46 8z m-7439
-71 c13 9 18 8 23 -3 3 -8 3 -21 0 -28 -3 -8 2 -20 11 -27 29 -24 6 -90 -32
-90 -26 0 -51 42 -46 76 5 28 2 33 -28 44 -19 8 -36 15 -39 17 -4 2 -6 -12 -6
-32 0 -24 5 -35 15 -35 22 0 51 -30 51 -54 0 -12 -10 -39 -21 -61 l-21 -40 30
-45 c41 -59 96 -97 117 -80 8 7 15 19 15 28 0 8 3 12 7 9 3 -4 8 -49 10 -99 1
-51 4 -104 5 -117 5 -42 -20 -34 -57 17 -20 28 -48 55 -64 60 -15 5 -55 36
-87 68 -33 33 -76 71 -95 86 -32 26 -33 28 -16 42 15 12 17 22 12 63 -10 68
-65 126 -65 67 0 -15 -4 -23 -10 -19 -6 4 -10 25 -9 48 1 23 -1 53 -5 67 -10
41 6 55 43 36 17 -9 31 -21 31 -26 0 -5 10 -12 23 -15 12 -4 32 -19 44 -34 12
-14 22 -20 23 -13 0 6 -4 12 -10 12 -20 0 -10 57 15 80 14 13 25 29 25 36 0
27 27 21 59 -13 28 -30 37 -34 52 -25z m453 -19 c13 -22 15 -34 7 -42 -13 -13
-61 28 -61 53 0 39 28 34 54 -11z m-737 -171 c-3 -8 -6 -5 -6 6 -1 11 2 17 5
13 3 -3 4 -12 1 -19z m6060 0 c-3 -8 -6 -5 -6 6 -1 11 2 17 5 13 3 -3 4 -12 1
-19z m1323 -88 c0 -11 -16 -37 -35 -57 -19 -20 -35 -46 -35 -56 0 -11 -13 -42
-30 -69 -35 -57 -35 -58 -12 -58 18 -1 52 -22 52 -34 0 -12 -96 -6 -116 9 -12
8 -24 11 -28 8 -3 -3 -6 2 -6 11 0 16 33 72 50 86 3 3 12 20 19 38 8 17 18 32
23 32 5 0 28 20 50 45 22 24 45 42 49 39 5 -3 6 2 3 10 -3 9 -1 16 5 16 6 0
11 -9 11 -20z m-6532 -50 c18 -11 37 -18 41 -16 4 3 17 -1 27 -9 10 -8 36 -15
57 -15 53 0 124 -51 137 -99 19 -69 -11 -122 -62 -112 -33 7 -43 19 -53 64 -4
20 -16 32 -45 44 -25 11 -44 28 -51 46 -6 15 -31 45 -55 66 -61 54 -59 69 4
31z m6288 -58 c-18 -16 -18 -16 -6 6 6 13 14 21 18 18 3 -4 -2 -14 -12 -24z
m-123 -89 c-7 -3 -13 -11 -13 -19 0 -9 -5 -12 -11 -9 -7 5 -4 14 7 26 9 11 20
16 23 13 3 -4 0 -9 -6 -11z m-4333 -421 c0 -15 -22 -30 -36 -25 -8 3 -14 -1
-14 -8 0 -14 -97 -109 -111 -109 -4 0 -10 -9 -14 -19 -8 -25 -23 -30 -63 -19
-30 8 -33 12 -27 36 9 39 62 78 120 89 10 2 22 7 25 12 19 30 120 66 120 43z
m-808 -854 c-18 -31 -40 -35 -81 -14 -24 13 -32 13 -54 1 -44 -23 -110 -20
-127 7 -3 4 -21 -7 -40 -24 -29 -27 -44 -33 -85 -34 -75 -2 -128 -14 -151 -36
-19 -17 -22 -17 -28 -3 -12 32 -18 122 -9 128 5 3 30 0 56 -8 25 -8 62 -11 82
-8 19 3 41 1 48 -5 15 -13 66 9 80 34 4 8 16 14 25 14 10 0 23 5 28 10 7 7 30
8 70 2 69 -11 163 -7 178 8 20 20 27 -40 8 -72z m-602 -158 c0 -5 -4 -10 -10
-10 -5 0 -10 5 -10 10 0 6 5 10 10 10 6 0 10 -4 10 -10z m4484 -142 c-4 -28
-3 -29 5 -11 9 20 13 21 43 11 18 -5 43 -10 55 -9 14 0 41 -19 75 -53 63 -64
150 -126 177 -126 10 0 29 -8 42 -18 13 -10 42 -24 65 -30 28 -8 57 -29 93
-66 28 -30 51 -60 51 -67 0 -6 -33 -43 -73 -83 -53 -52 -87 -76 -124 -88 -37
-13 -71 -38 -129 -93 -43 -42 -83 -74 -88 -72 -48 18 -55 17 -73 -9 -10 -14
-29 -38 -43 -53 -55 -56 -55 -57 -21 -98 55 -66 36 -81 -49 -38 l-50 25 0 -25
c0 -44 79 -238 111 -270 16 -17 29 -38 29 -46 0 -8 15 -21 33 -29 17 -7 43
-18 57 -24 14 -6 46 -26 72 -43 34 -24 58 -33 87 -33 23 0 41 -3 41 -7 0 -14
-54 -70 -74 -77 -10 -3 -24 -2 -31 4 -9 7 -45 -3 -126 -36 -112 -46 -155 -77
-200 -144 -8 -13 -21 -21 -28 -19 -9 3 -2 16 21 39 50 50 54 71 23 117 -47 68
-96 186 -106 251 -5 35 -15 73 -23 84 -8 10 -12 27 -9 38 3 10 0 21 -6 24 -6
4 -11 22 -11 40 0 19 -9 45 -21 60 -40 51 -68 113 -56 125 8 8 8 11 -2 11 -7
0 -9 5 -6 10 3 6 13 10 21 10 8 0 13 -4 9 -9 -3 -5 -1 -12 4 -15 5 -4 12 3 16
14 3 11 11 20 16 20 21 0 8 45 -16 57 -25 11 -31 6 -26 -21 1 -5 -4 -4 -12 3
-12 9 -16 9 -20 -3 -3 -7 0 -19 6 -25 8 -8 8 -11 -1 -11 -7 0 -12 4 -12 9 0 5
-7 11 -14 14 -11 4 -13 1 -9 -11 6 -15 5 -15 -10 -3 -14 11 -15 17 -5 28 9 11
9 16 -3 23 -8 6 -15 6 -17 0 -6 -16 -22 -12 -22 5 0 8 -7 15 -15 15 -9 0 -15
9 -15 23 0 16 -3 18 -9 9 -7 -11 -9 -11 -14 2 -4 9 -18 16 -32 16 -35 0 -70
40 -95 108 -37 98 -36 105 4 125 20 9 36 22 36 28 0 8 15 10 50 6 27 -3 52 -2
55 4 13 20 41 8 59 -25 21 -40 41 -46 111 -37 46 6 52 10 83 56 18 28 39 61
46 75 7 14 25 46 39 72 22 41 24 53 15 84 -5 20 -7 42 -4 50 3 7 1 16 -4 19
-4 3 -3 19 3 37 10 25 9 32 -1 36 -9 2 -2 15 20 37 18 19 34 34 35 34 1 1 0
-14 -3 -31z m-50 7 c-4 -8 -8 -15 -10 -15 -2 0 -4 7 -4 15 0 8 4 15 10 15 5 0
7 -7 4 -15z m-34 -69 c0 -3 -4 -8 -10 -11 -5 -3 -10 -1 -10 4 0 6 5 11 10 11
6 0 10 -2 10 -4z m825 -456 c10 -12 25 -18 32 -16 13 6 17 -9 13 -54 -3 -35
-48 -110 -82 -138 -22 -18 -28 -32 -28 -62 0 -22 5 -40 13 -43 17 -6 67 33 67
53 0 20 37 56 47 46 11 -11 -11 -60 -32 -71 -11 -5 -21 -19 -22 -30 -1 -11 -4
-31 -8 -45 -6 -19 8 -8 53 40 34 36 64 73 67 83 4 9 12 17 18 17 7 0 22 16 34
35 19 28 20 33 6 28 -14 -6 -13 -2 4 23 28 38 82 93 111 112 35 23 52 1 29
-37 -9 -16 -14 -36 -11 -45 7 -19 24 -22 24 -4 0 6 3 8 7 5 7 -8 -27 -74 -64
-123 -33 -44 -29 -60 8 -34 50 36 42 17 -19 -46 -104 -106 -312 -261 -312
-233 0 6 8 13 18 16 27 7 24 32 -16 113 -27 54 -42 75 -56 75 -23 0 -120 150
-111 173 4 12 10 10 29 -9 25 -26 71 -104 79 -135 3 -14 5 -12 6 7 0 16 -13
49 -33 77 -18 27 -36 63 -39 81 -6 28 -2 33 38 61 25 17 53 30 62 28 14 -2 17
3 15 20 -3 22 13 52 28 52 4 0 15 -9 25 -20z m-3530 1 c3 -5 1 -12 -5 -16 -5
-3 -10 1 -10 9 0 18 6 21 15 7z m-1545 -91 c0 -5 -5 -10 -11 -10 -5 0 -7 5 -4
10 3 6 8 10 11 10 2 0 4 -4 4 -10z m1592 -47 c-6 -3 -10 -9 -7 -13 3 -5 1 -11
-5 -15 -5 -3 -10 0 -10 7 0 17 22 40 29 31 3 -3 0 -8 -7 -10z m-1707 -43 c-10
-11 -25 -20 -34 -20 -11 1 -8 8 13 26 32 29 48 24 21 -6z m1651 -66 c-3 -8
-11 -14 -18 -14 -10 0 -10 2 0 9 7 4 12 12 11 17 -1 5 0 16 1 24 2 11 4 10 7
-3 3 -10 2 -25 -1 -33z m934 -9 c0 -8 -4 -15 -10 -15 -5 0 -10 7 -10 15 0 8 5
15 10 15 6 0 10 -7 10 -15z m-960 -32 c0 -5 -5 -15 -10 -23 -8 -12 -10 -11
-10 8 0 12 5 22 10 22 6 0 10 -3 10 -7z m-147 -41 c32 -14 34 -28 6 -61 -23
-28 -26 -26 -44 32 -14 49 -13 50 38 29z m927 -67 c0 -19 -46 -49 -65 -41 -23
9 -18 21 18 38 42 20 47 21 47 3z m3014 -158 c5 -21 5 -21 -9 -3 -8 11 -15 24
-15 29 0 4 -5 5 -10 2 -6 -4 -7 -11 -4 -17 4 -5 -4 -4 -17 2 -22 12 -22 13 -4
26 16 12 21 12 36 -2 9 -8 19 -25 23 -37z m-356 -74 c-15 -15 -31 -24 -34 -20
-10 10 26 47 45 47 11 0 8 -7 -11 -27z m335 -74 c-4 -12 -11 -18 -20 -15 -8 3
-17 6 -21 6 -3 0 3 8 14 19 23 22 34 18 27 -10z m-13 -139 c0 -5 -2 -10 -4
-10 -3 0 -8 5 -11 10 -3 6 -1 10 4 10 6 0 11 -4 11 -10z m50 0 c0 -5 -5 -10
-11 -10 -5 0 -7 5 -4 10 3 6 8 10 11 10 2 0 4 -4 4 -10z m-4384 -47 c-11 -11
-19 6 -11 24 8 17 8 17 12 0 3 -10 2 -21 -1 -24z m3320 -14 c8 -16 14 -36 14
-45 0 -26 -30 -54 -57 -54 -17 0 -23 -6 -23 -21 0 -30 -18 -59 -44 -69 -21 -7
-24 -17 -29 -90 -3 -45 -9 -86 -14 -91 -12 -12 -35 185 -31 263 2 46 -1 62
-20 88 -40 54 -12 81 35 34 25 -25 27 -25 39 -9 19 26 48 12 41 -21 -3 -20 1
-28 20 -37 34 -15 53 5 30 31 -17 19 -23 53 -10 65 9 9 32 -11 49 -44z m1194
16 c0 -8 -2 -15 -4 -15 -2 0 -6 7 -10 15 -3 8 -1 15 4 15 6 0 10 -7 10 -15z
m-20 -15 c0 -5 -5 -10 -11 -10 -5 0 -7 5 -4 10 3 6 8 10 11 10 2 0 4 -4 4 -10z
m145 -9 c3 -5 1 -12 -5 -16 -5 -3 -10 1 -10 9 0 18 6 21 15 7z m-1617 -51 c14
-21 22 -48 22 -74 0 -53 -50 -328 -63 -341 -10 -11 -5 84 11 205 16 113 21
186 13 196 -3 5 -19 17 -34 27 -15 10 -25 22 -22 27 10 16 49 -6 73 -40z
m1838 35 c17 -13 17 -14 2 -15 -10 0 -18 5 -18 11 0 5 -4 7 -10 4 -5 -3 -10
-1 -10 4 0 15 13 14 36 -4z m124 -6 c0 -6 -4 -7 -10 -4 -5 3 -10 11 -10 16 0
6 5 7 10 4 6 -3 10 -11 10 -16z m-410 7 c0 -2 -7 -9 -15 -16 -13 -11 -14 -10
-9 4 5 14 24 23 24 12z m-1690 -25 c0 -12 -20 -25 -27 -18 -7 7 6 27 18 27 5
0 9 -4 9 -9z m2056 -60 c-2 -45 -11 -44 -14 1 -1 22 1 37 7 34 5 -3 8 -19 7
-35z m-29 -33 c-3 -8 -6 -5 -6 6 -1 11 2 17 5 13 3 -3 4 -12 1 -19z m2 -42
c-3 -3 -11 5 -18 17 -13 21 -12 21 5 5 10 -10 16 -20 13 -22z m-29 -16 c-12
-23 -30 -27 -30 -6 0 8 8 17 18 19 9 3 18 5 20 6 1 0 -2 -8 -8 -19z m37 -32
c-3 -8 -6 -5 -6 6 -1 11 2 17 5 13 3 -3 4 -12 1 -19z m-17 -19 c0 -17 -4 -28
-10 -24 -11 7 -9 55 2 55 4 0 8 -14 8 -31z m50 21 c0 -5 -5 -10 -11 -10 -5 0
-7 5 -4 10 3 6 8 10 11 10 2 0 4 -4 4 -10z m-1625 -29 c3 -5 1 -12 -5 -16 -5
-3 -10 1 -10 9 0 18 6 21 15 7z m1611 -18 c-7 -7 -26 7 -26 19 0 6 6 6 15 -2
9 -7 13 -15 11 -17z m-2326 -7 c0 -3 -4 -8 -10 -11 -5 -3 -10 -1 -10 4 0 6 5
11 10 11 6 0 10 -2 10 -4z m2260 -11 c-6 -8 -9 -18 -6 -23 3 -6 -2 -16 -11
-23 -14 -12 -15 -11 -9 9 5 13 3 22 -3 22 -6 0 -11 5 -11 11 0 5 4 8 9 4 5 -3
12 -1 16 5 3 5 11 10 17 10 7 0 6 -5 -2 -15z m-1620 -19 c0 -15 -47 -42 -57
-33 -9 9 37 58 48 51 5 -3 9 -11 9 -18z m1688 11 c9 3 14 3 10 -1 -3 -4 -12
-8 -20 -10 -7 -1 -19 -5 -26 -10 -11 -7 -11 -4 0 13 7 12 14 17 16 12 2 -6 11
-7 20 -4z m-155 -32 c3 -18 -1 -29 -14 -36 -13 -6 -19 -6 -19 1 0 5 7 10 15
10 11 0 12 5 5 25 -5 14 -6 25 -1 25 5 0 11 -11 14 -25z m-2533 5 c0 -5 -5
-10 -11 -10 -5 0 -7 5 -4 10 3 6 8 10 11 10 2 0 4 -4 4 -10z m2770 -45 c0 -8
-4 -15 -10 -15 -5 0 -10 7 -10 15 0 8 5 15 10 15 6 0 10 -7 10 -15z m37 -1
c-3 -3 -12 -4 -19 -1 -8 3 -5 6 6 6 11 1 17 -2 13 -5z m-342 -14 c-3 -5 -10
-10 -16 -10 -5 0 -9 5 -9 10 0 6 7 10 16 10 8 0 12 -4 9 -10z m130 -10 c3 -5
1 -10 -4 -10 -6 0 -11 5 -11 10 0 6 2 10 4 10 3 0 8 -4 11 -10z m50 -10 c3 -5
1 -10 -4 -10 -6 0 -11 5 -11 10 0 6 2 10 4 10 3 0 8 -4 11 -10z m-265 -4 c0
-3 -4 -8 -10 -11 -5 -3 -10 -1 -10 4 0 6 5 11 10 11 6 0 10 -2 10 -4z m310 -6
c0 -5 -2 -10 -4 -10 -3 0 -8 5 -11 10 -3 6 -1 10 4 10 6 0 11 -4 11 -10z
m-2681 -36 c-6 -8 -15 -14 -20 -14 -14 0 -11 28 4 33 20 7 29 -4 16 -19z
m2731 -4 c0 -5 -4 -10 -10 -10 -5 0 -10 5 -10 10 0 6 5 10 10 10 6 0 10 -4 10
-10z m-30 -23 c10 -4 8 -6 -7 -6 -16 -1 -23 5 -23 17 0 10 3 13 8 6 4 -6 14
-14 22 -17z m-100 -33 c0 -8 6 -14 13 -14 8 0 8 -3 -2 -9 -16 -10 -41 -4 -41
11 0 5 6 6 13 2 10 -6 10 -4 0 7 -18 18 -16 30 2 23 8 -4 15 -12 15 -20z
m-2092 -19 c14 -31 6 -54 -22 -60 -37 -7 -99 -16 -156 -21 -69 -7 -61 4 48 63
91 49 115 52 130 18z m1937 -4 c-3 -6 -11 -11 -17 -11 -6 0 -6 6 2 15 14 17
26 13 15 -4z m95 15 c0 -3 -4 -8 -10 -11 -5 -3 -10 -1 -10 4 0 6 5 11 10 11 6
0 10 -2 10 -4z m-3912 -44 c2 -22 -2 -34 -12 -38 -9 -3 -16 -15 -16 -25 0 -29
-13 -22 -32 17 -22 42 -22 54 -4 54 8 0 17 7 20 16 11 28 41 12 44 -24z m3908
-28 c-7 -7 -12 -8 -15 -2 -2 6 -6 5 -11 -2 -4 -7 -13 -9 -20 -5 -8 5 -8 11 -2
17 6 6 8 17 5 24 -4 11 2 10 24 -3 23 -13 28 -20 19 -29z m-3856 2 c0 -8 -7
-19 -16 -27 -13 -10 -17 -10 -24 2 -7 9 -5 15 5 17 8 2 15 10 15 18 0 8 5 12
10 9 6 -3 10 -12 10 -19z m3800 17 c0 -14 -19 -38 -25 -32 -8 8 5 39 16 39 5
0 9 -3 9 -7z m-2563 -55 c-3 -8 -6 -5 -6 6 -1 11 2 17 5 13 3 -3 4 -12 1 -19z
m279 -33 c-11 -8 -22 -12 -25 -9 -6 6 19 24 34 24 6 -1 1 -7 -9 -15z m2174
-45 c0 -5 -2 -10 -4 -10 -3 0 -8 5 -11 10 -3 6 -1 10 4 10 6 0 11 -4 11 -10z
m-110 -10 c0 -5 -5 -10 -11 -10 -5 0 -7 5 -4 10 3 6 8 10 11 10 2 0 4 -4 4
-10z m-40 -31 c0 -6 -4 -7 -10 -4 -5 3 -10 11 -10 16 0 6 5 7 10 4 6 -3 10
-11 10 -16z m-45 -29 c3 -5 1 -10 -4 -10 -6 0 -11 5 -11 10 0 6 2 10 4 10 3 0
8 -4 11 -10z m-148 -102 c-3 -8 -6 -5 -6 6 -1 11 2 17 5 13 3 -3 4 -12 1 -19z
m-597 -218 c0 -5 -5 -10 -11 -10 -5 0 -7 5 -4 10 3 6 8 10 11 10 2 0 4 -4 4
-10z m115 0 c3 -5 1 -10 -4 -10 -6 0 -11 5 -11 10 0 6 2 10 4 10 3 0 8 -4 11
-10z m-180 -30 c3 -5 -1 -10 -9 -10 -9 0 -16 5 -16 10 0 6 4 10 9 10 6 0 13
-4 16 -10z m-124 -53 c-10 -9 -11 -8 -5 6 3 10 9 15 12 12 3 -3 0 -11 -7 -18z
m-182 -48 c-10 -6 -11 -9 -1 -9 6 0 12 -5 12 -11 0 -6 -7 -9 -17 -7 -20 4 -27
38 -7 38 8 0 14 6 15 13 0 8 2 8 6 -2 3 -7 -1 -17 -8 -22z m-79 -19 c0 -5 -4
-10 -10 -10 -5 0 -10 5 -10 10 0 6 5 10 10 10 6 0 10 -4 10 -10z m-85 -18 c-3
-3 -11 0 -18 7 -9 10 -8 11 6 5 10 -3 15 -9 12 -12z m-177 -60 c2 -7 -2 -10
-12 -6 -9 3 -16 11 -16 16 0 13 23 5 28 -10z m-78 -23 c0 -5 -4 -9 -10 -9 -5
0 -10 7 -10 16 0 8 5 12 10 9 6 -3 10 -10 10 -16z"/>
<path d="M2148 5373 c-27 -7 -22 -16 17 -37 19 -11 35 -23 35 -28 0 -5 5 -6
10 -3 7 4 4 13 -7 23 -10 10 -18 23 -18 31 0 16 -12 21 -37 14z"/>
<path d="M7047 3472 c-2 -4 -2 -24 1 -45 3 -29 8 -37 20 -32 20 8 52 -23 52
-50 0 -24 -50 -55 -88 -55 -12 0 -33 -10 -48 -23 -32 -28 -29 -37 42 -100 l50
-46 49 67 c27 37 48 74 47 83 -2 9 2 27 7 41 9 23 5 30 -25 57 -19 18 -39 29
-44 26 -5 -3 -7 0 -4 8 3 8 -2 17 -10 20 -9 4 -16 15 -16 26 0 19 -26 37 -33
23z"/>
<path d="M6974 3459 c-3 -6 -2 -14 4 -18 5 -3 -11 -24 -37 -46 -25 -22 -40
-32 -32 -22 22 28 -2 19 -33 -13 -33 -34 -29 -60 9 -60 14 0 25 4 25 9 0 5 11
12 25 15 18 5 28 17 36 46 7 22 16 40 21 40 11 0 10 47 -1 55 -5 3 -13 0 -17
-6z m-14 -99 c0 -5 -7 -10 -16 -10 -8 0 -12 5 -9 10 3 6 10 10 16 10 5 0 9 -4
9 -10z"/>
<path d="M6939 3423 c-13 -16 -12 -17 4 -4 16 13 21 21 13 21 -2 0 -10 -8 -17
-17z"/>
<path d="M6812 3247 c-6 -7 -14 -43 -18 -80 -6 -62 -5 -70 16 -92 29 -31 38
-32 33 -2 -2 12 1 28 6 36 7 11 17 5 48 -28 36 -37 44 -41 90 -41 55 0 68 6
50 25 -7 6 -43 47 -82 89 -59 65 -108 106 -128 106 -3 0 -9 -6 -15 -13z"/>
<path d="M6578 3023 c7 -3 16 -2 19 1 4 3 -2 6 -13 5 -11 0 -14 -3 -6 -6z"/>
<path d="M6780 3001 c0 -5 5 -13 10 -16 6 -3 10 -2 10 4 0 5 -4 13 -10 16 -5
3 -10 2 -10 -4z"/>
<path d="M6843 2774 c-31 -80 -34 -115 -7 -93 8 6 14 16 14 21 0 5 9 21 20 35
20 26 25 63 11 97 -5 14 -14 0 -38 -60z"/>
<path d="M6750 2810 c0 -5 7 -10 16 -10 8 0 12 5 9 10 -3 6 -10 10 -16 10 -5
0 -9 -4 -9 -10z"/>
<path d="M6800 2630 c0 -5 5 -10 10 -10 6 0 10 5 10 10 0 6 -4 10 -10 10 -5 0
-10 -4 -10 -10z"/>
<path d="M8060 2860 c0 -5 5 -10 11 -10 5 0 7 5 4 10 -3 6 -8 10 -11 10 -2 0
-4 -4 -4 -10z"/>
<path d="M7986 2775 c-3 -9 -6 -22 -5 -28 0 -7 5 -1 10 12 5 13 8 26 5 28 -2
2 -6 -3 -10 -12z"/>
<path d="M7940 2740 c0 -5 5 -10 10 -10 6 0 10 5 10 10 0 6 -4 10 -10 10 -5 0
-10 -4 -10 -10z"/>
<path d="M7958 2722 c-24 -5 -23 -18 2 -25 20 -5 29 -37 10 -37 -5 0 -7 -7 -4
-15 10 -24 33 -18 28 8 -10 56 -19 72 -36 69z"/>
<path d="M8010 2720 c0 -5 5 -10 10 -10 6 0 10 5 10 10 0 6 -4 10 -10 10 -5 0
-10 -4 -10 -10z"/>
<path d="M8022 2650 c-16 -25 -15 -30 2 -30 19 0 25 11 17 32 -6 17 -7 16 -19
-2z"/>
<path d="M7998 2513 c6 -2 18 -2 25 0 6 3 1 5 -13 5 -14 0 -19 -2 -12 -5z"/>
<path d="M8064 2465 c-4 -11 -12 -23 -18 -27 -8 -5 -8 -8 0 -8 17 0 37 27 31
42 -3 9 -7 6 -13 -7z"/>
<path d="M8066 2425 c-11 -8 -16 -18 -12 -22 4 -5 13 0 20 9 7 10 17 14 21 10
5 -4 5 -1 1 6 -9 15 -7 15 -30 -3z"/>
<path d="M8305 2400 c-3 -5 3 -10 14 -10 12 0 21 5 21 10 0 6 -6 10 -14 10 -8
0 -18 -4 -21 -10z"/>
<path d="M8336 2365 c4 -8 10 -12 15 -9 14 8 10 24 -6 24 -9 0 -12 -6 -9 -15z"/>
<path d="M8375 2360 c-3 -5 -1 -10 4 -10 6 0 11 5 11 10 0 6 -2 10 -4 10 -3 0
-8 -4 -11 -10z"/>
<path d="M8601 2334 c0 -11 3 -14 6 -6 3 7 2 16 -1 19 -3 4 -6 -2 -5 -13z"/>
<path d="M8628 2246 c-3 -14 -2 -26 3 -26 14 0 20 20 11 36 -8 14 -10 12 -14
-10z"/>
<path d="M8600 2244 c0 -8 5 -12 10 -9 6 3 10 10 10 16 0 5 -4 9 -10 9 -5 0
-10 -7 -10 -16z"/>
<path d="M8665 2220 c-3 -5 -2 -10 4 -10 5 0 13 5 16 10 3 6 2 10 -4 10 -5 0
-13 -4 -16 -10z"/>
<path d="M8668 2133 c7 -3 16 -2 19 1 4 3 -2 6 -13 5 -11 0 -14 -3 -6 -6z"/>
<path d="M8540 2059 c0 -5 5 -7 10 -4 6 3 10 8 10 11 0 2 -4 4 -10 4 -5 0 -10
-5 -10 -11z"/>
<path d="M8620 2040 c0 -5 5 -10 10 -10 6 0 10 5 10 10 0 6 -4 10 -10 10 -5 0
-10 -4 -10 -10z"/>
<path d="M8699 2043 c-1 -5 0 -20 1 -34 1 -20 -3 -27 -17 -25 -9 0 -18 -3 -18
-9 0 -5 -4 -16 -9 -23 -4 -7 15 0 42 15 39 22 47 30 34 35 -15 6 -14 7 3 8 18
1 18 2 -3 11 -13 5 -20 13 -17 19 3 5 1 10 -4 10 -6 0 -11 -3 -12 -7z"/>
<path d="M8756 2038 c5 -7 9 -17 9 -22 0 -5 5 -11 11 -13 19 -6 12 24 -9 36
-15 10 -18 10 -11 -1z"/>
<path d="M8665 2030 c3 -5 8 -10 11 -10 2 0 4 5 4 10 0 6 -5 10 -11 10 -5 0
-7 -4 -4 -10z"/>
<path d="M8622 1998 c2 -6 10 -14 16 -16 7 -2 10 2 6 12 -7 18 -28 22 -22 4z"/>
<path d="M8845 2000 c-3 -5 -1 -10 4 -10 6 0 11 5 11 10 0 6 -2 10 -4 10 -3 0
-8 -4 -11 -10z"/>
<path d="M8760 1981 c0 -16 12 -41 20 -41 4 0 5 11 2 25 -4 23 -22 36 -22 16z"/>
<path d="M8830 1940 c0 -5 5 -10 11 -10 5 0 7 5 4 10 -3 6 -8 10 -11 10 -2 0
-4 -4 -4 -10z"/>
<path d="M8817 1896 c-4 -10 -1 -13 9 -9 7 3 14 9 14 14 0 14 -17 10 -23 -5z"/>
<path d="M8656 1888 c-7 -21 -3 -48 6 -48 4 0 7 14 6 30 -2 32 -6 38 -12 18z"/>
<path d="M8690 1880 c0 -5 4 -10 9 -10 6 0 13 5 16 10 3 6 -1 10 -9 10 -9 0
-16 -4 -16 -10z"/>
<path d="M8777 1884 c-4 -4 -7 -14 -7 -23 0 -11 3 -12 11 -4 6 6 10 16 7 23
-2 6 -7 8 -11 4z"/>
<path d="M8580 1855 c0 -18 8 -18 40 0 l25 14 -32 1 c-23 0 -33 -5 -33 -15z"/>
<path d="M8676 1833 c-6 -7 12 -33 24 -33 3 0 7 7 7 15 0 15 -21 28 -31 18z"/>
<path d="M8596 1815 c4 -8 10 -15 14 -15 4 0 13 7 20 15 11 13 8 15 -13 15
-19 0 -25 -4 -21 -15z"/>
<path d="M8625 1730 c3 -5 8 -10 11 -10 2 0 4 5 4 10 0 6 -5 10 -11 10 -5 0
-7 -4 -4 -10z"/>
<path d="M8485 1710 c-3 -5 -1 -10 4 -10 6 0 11 5 11 10 0 6 -2 10 -4 10 -3 0
-8 -4 -11 -10z"/>
<path d="M8370 1706 c0 -2 7 -9 15 -16 9 -7 15 -8 15 -2 0 5 -7 12 -15 16 -8
3 -15 4 -15 2z"/>
<path d="M8518 1703 c7 -3 16 -2 19 1 4 3 -2 6 -13 5 -11 0 -14 -3 -6 -6z"/>
<path d="M8420 1692 c0 -12 19 -26 26 -19 2 2 -2 10 -11 17 -9 8 -15 8 -15 2z"/>
<path d="M8350 1681 c0 -5 5 -13 10 -16 6 -3 10 -2 10 4 0 5 -4 13 -10 16 -5
3 -10 2 -10 -4z"/>
<path d="M8490 1670 c0 -5 5 -10 10 -10 6 0 10 5 10 10 0 6 -4 10 -10 10 -5 0
-10 -4 -10 -10z"/>
<path d="M8456 1645 c-16 -12 -17 -15 -4 -15 9 0 18 7 22 15 7 18 6 18 -18 0z"/>
<path d="M8085 1560 c3 -6 0 -13 -9 -16 -8 -3 -14 -14 -13 -25 2 -25 17 -25
17 0 0 23 25 45 41 35 8 -4 9 -3 5 4 -4 7 -16 12 -27 12 -11 0 -17 -5 -14 -10z"/>
<path d="M7210 1130 c0 -5 5 -10 10 -10 6 0 10 5 10 10 0 6 -4 10 -10 10 -5 0
-10 -4 -10 -10z"/>
</g>
</svg>
